:SAMPLES-PER-SECOND 30
:FULLY-SPECIFIED
:DEGREES
196
root  34.93252251 36.48813203 -14.72807757 11.2558527 8.144396782 4.580403805
lowerback  -7.970733643 3.627815723 4.137786388
upperback  -4.079440117 4.242807865 -4.49683094
thorax  0.8729839921 1.898614883 -6.644569874
lowerneck  -17.48629951 4.949389935 7.460529804
upperneck  16.00219917 3.934520245 3.20126009
head  7.950630188 2.568289995 0.3198429942
lclavicle  0 -4.497500157e-015 -2.743230041e-014
lhumerus  -41.67919922 23.39139938 70.76039886
lradius  -0.1069605052 -6.507048965e-006 25.75290108
lwrist  4.824992743e-007 -3.790274832e-007 -31.19460106
lhand  -4.444749912e-031 -37.39680099 -10.59200001
lfingers  90 7.125020027 -90
lthumb  95.03052065 -25.41144884 101.5923974
rclavicle  0 -4.497500157e-015 -2.743230041e-014
rhumerus  69.80609894 12.03720093 -60.33110046
rradius  -5.16745672e-007 2.214343908e-008 38.17490005
rwrist  -3.062178075e-005 0.01283956133 -152.2440033
rhand  -1.771011023e-031 4.495490074 -8.010800362
rfingers  -90 -7.125020027 -90
rthumb  -85.2932856 -8.124887646 -59.77693282
rfemur  -14.06550598 11.94558144 13.8660059
rtibia  -2.595877171 1.323613405 23.39652443
rfoot  -2.191208601 -16.31842804 -43.12301254
rtoes  3.822133895 19.64608168 -101.2388187
lfemur  -11.3025856 -21.5823822 -19.3946228
ltibia  3.643201351 1.747308612 14.41780663
lfoot  1.084711552 -28.49480438 31.47912598
ltoes  -8.67904985 -18.08859366 -116.1804861
197
root  34.93131202 36.4868104 -14.72934963 11.26945972 8.254463196 4.595715523
lowerback  -7.97555685 3.62438488 4.133841038
upperback  -4.072599888 4.241590023 -4.494925022
thorax  0.8815889955 1.899522662 -6.637989998
lowerneck  -17.50639915 4.949130058 7.487100124
upperneck  16.01399994 3.926410198 3.191390038
head  7.958839893 2.565490007 0.3120829463
lclavicle  0 -4.497500157e-015 -2.743230041e-014
lhumerus  -41.70560074 23.43440056 70.72940063
lradius  -0.1082967967 -6.507048965e-006 25.79470253
lwrist  4.824992743e-007 -3.790274832e-007 -31.13010025
lhand  -4.442818134e-031 -37.36420059 -10.59729958
lfingers  90 7.125020027 -90
lthumb  95.01643218 -25.41783031 101.5580081
rclavicle  0 -4.497500157e-015 -2.743230041e-014
rhumerus  69.7818985 12.00220013 -60.38080215
rradius  -5.16745672e-007 2.214343908e-008 38.06689835
rwrist  -3.062178075e-005 0.01277987845 -152.0950012
rhand  -1.771169402e-031 4.560190201 -7.976029873
rfingers  -90 -7.125020027 -90
rthumb  -85.2611118 -8.159445688 -59.71140672
rfemur  -14.07494068 11.93083382 13.88152122
rtibia  -2.622313738 1.356330872 23.42530632
rfoot  -2.204672098 -16.22136307 -43.18400955
rtoes  3.844322007 19.64191679 -101.3048203
lfemur  -11.3641119 -21.63039207 -19.38110733
ltibia  3.621952534 1.734768748 14.47320557
lfoot  1.057226181 -28.48723412 31.36843109
ltoes  -8.670782695 -18.09245492 -116.1538624
198
root  34.93052505 36.48540767 -14.7324059 11.27922535 8.343374252 4.621798038
lowerback  -8.0010252 3.623850346 4.141245842
upperback  -4.069343567 4.251589775 -4.493299961
thorax  0.9059690237 1.899320006 -6.634119987
lowerneck  -17.48789978 4.937449932 7.50398016
upperneck  15.98620033 3.912370205 3.177330017
head  7.946720123 2.557739973 0.3021740019
lclavicle  0 -4.497500157e-015 -2.743230041e-014
lhumerus  -41.73099899 23.44849968 70.70290375
lradius  -0.1096362323 -6.507048965e-006 25.8214016
lwrist  4.824992743e-007 -3.790274832e-007 -31.13279915
lhand  -4.44351693e-031 -37.37599945 -10.57310009
lfingers  90 7.125020027 -90
lthumb  95.0165671 -25.39361562 101.5683243
rclavicle  0 -4.497500157e-015 -2.743230041e-014
rhumerus  69.75409698 11.93519974 -60.73139954
rradius  -5.16745672e-007 2.214343908e-008 37.86589813
rwrist  -3.062178075e-005 0.01272019278 -151.7489929
rhand  -1.771330443e-031 4.625040054 -8.04957962
rfingers  -90 -7.125020027 -90
rthumb  -85.28406759 -8.100562734 -59.65358261
rfemur  -14.09060383 11.93455791 13.88304424
rtibia  -2.656847954 1.366264939 23.46744919
rfoot  -2.229734659 -16.15691566 -43.25485611
rtoes  3.857105289 19.63950584 -101.3428521
lfemur  -11.39637375 -21.70411301 -19.38885117
ltibia  3.618302345 1.72647202 14.49054527
lfoot  1.046543121 -28.4765625 31.32094574
ltoes  -8.676498845 -18.08978562 -116.1722702
199
root  34.92706179 36.48385176 -14.73243293 11.27895069 8.466309547 4.63454771
lowerback  -8.004899979 3.630759716 4.168459892
upperback  -4.068070889 4.247529984 -4.503960133
thorax  0.9028019905 1.896469951 -6.66242981
lowerneck  -17.50049973 4.945750237 7.579380035
upperneck  16.03300095 3.913789988 3.110810041
head  7.967870235 2.557820082 0.2694659829
lclavicle  0 -4.497500157e-015 -2.743230041e-014
lhumerus  -41.73799896 23.40800095 70.68060303
lradius  -0.1109787375 -6.507048965e-006 25.79030037
lwrist  4.824992743e-007 -3.790274832e-007 -31.12190056
lhand  -4.444850587e-031 -37.39849854 -10.60070038
lfingers  90 7.125020027 -90
lthumb  95.03316592 -25.41983928 101.5948816
rclavicle  0 -4.497500157e-015 -2.743230041e-014
rhumerus  69.70659637 11.89430046 -60.74160004
rradius  -5.16745672e-007 2.214343908e-008 37.78919983
rwrist  -3.062178075e-005 0.01266050432 -151.647995
rhand  -1.771342579e-031 4.629889965 -8.004570007
rfingers  -90 -7.125020027 -90
rthumb  -85.26003563 -8.139709526 -59.64565109
rfemur  -14.07633781 11.88932991 13.90338516
rtibia  -2.678592205 1.369204044 23.48248863
rfoot  -2.255827665 -16.13136482 -43.33606339
rtoes  3.845461386 19.64170224 -101.30821
lfemur  -11.38898849 -21.77144814 -19.38638878
ltibia  3.63073349 1.739555597 14.46968269
lfoot  1.041440248 -28.49311447 31.27518845
ltoes  -8.664322502 -18.09546901 -116.1330618
200
root  34.92495319 36.48345827 -14.73457457 11.28091621 8.555104256 4.635567188
lowerback  -7.987880707 3.650249958 4.212870598
upperback  -4.069359779 4.272019863 -4.524479866
thorax  0.9035869837 1.90862 -6.707890034
lowerneck  -17.51119995 4.929049969 7.564680099
upperneck  16.03879929 3.889590263 3.129260063
head  7.970510006 2.547369957 0.2752460539
lclavicle  0 -4.497500157e-015 -2.743230041e-014
lhumerus  -41.73870087 23.46509743 70.60690308
lradius  -0.1123242825 -6.507048965e-006 25.70170021
lwrist  4.824992743e-007 -3.790274832e-007 -31.29129982
lhand  -4.445016664e-031 -37.40129852 -10.5340004
lfingers  90 7.125020027 -90
lthumb  95.01969713 -25.35445091 101.591627
rclavicle  0 -4.497500157e-015 -2.743230041e-014
rhumerus  69.63150024 11.82080078 -60.3553009
rradius  -5.16745672e-007 2.214343908e-008 37.88010025
rwrist  -3.062178075e-005 0.01260081492 -151.9490051
rhand  -1.771415188e-031 4.658800125 -7.983970165
rfingers  -90 -7.125020027 -90
rthumb  -85.24302368 -8.159509052 -59.61601078
rfemur  -14.08113289 11.82122612 13.92650127
rtibia  -2.691349745 1.375259519 23.48508453
rfoot  -2.267000675 -16.1081295 -43.3697052
rtoes  3.850482288 19.64075599 -101.3231474
lfemur  -11.42984676 -21.8292408 -19.35120964
ltibia  3.624575853 1.760437608 14.48676872
lfoot  1.062725067 -28.53201103 31.29808426
ltoes  -8.651689878 -18.10135479 -116.0923966
201
root  34.92537371 36.48227181 -14.73741907 11.28431511 8.632668495 4.640805721
lowerback  -7.98859024 3.693500042 4.301050663
upperback  -4.076350212 4.323070049 -4.581329823
thorax  0.9146389961 1.932620049 -6.813630104
lowerneck  -17.50519943 4.89387989 7.530940056
upperneck  16.00690079 3.831059933 3.223180056
head  7.955359936 2.524869919 0.3038140833
lclavicle  0 -4.497500157e-015 -2.743230041e-014
lhumerus  -41.70249939 23.39049911 70.57720184
lradius  -0.1136805862 -6.507048965e-006 25.66220284
lwrist  4.824992743e-007 -3.790274832e-007 -31.29199982
lhand  -4.44407391e-031 -37.38539886 -10.50319958
lfingers  90 7.125020027 -90
lthumb  95.00541274 -25.32483892 101.5716485
rclavicle  0 -4.497500157e-015 -2.743230041e-014
rhumerus  69.50969696 11.68730068 -60.41200256
rradius  -5.16745672e-007 2.214343908e-008 37.8158989
rwrist  -3.062178075e-005 0.01254112087 -151.8370056
rhand  -1.771241604e-031 4.589379787 -7.989200115
rfingers  -90 -7.125020027 -90
rthumb  -85.26126953 -8.150156773 -59.68400277
rfemur  -14.07325745 11.8081789 13.93915081
rtibia  -2.699447632 1.403318286 23.50681686
rfoot  -2.27832222 -16.05212784 -43.41174316
rtoes  3.835952967 19.64349068 -101.2799239
lfemur  -11.42910862 -21.84014702 -19.345438
ltibia  3.62744832 1.780896187 14.47966194
lfoot  1.058644176 -28.57151985 31.25596428
ltoes  -8.656471972 -18.09912799 -116.107789
202
root  34.92433443 36.48152389 -14.7377675 11.28760242 8.740742683 4.632466793
lowerback  -7.966899395 3.700720072 4.313369751
upperback  -4.09126997 4.331620216 -4.591549873
thorax  0.8900520205 1.935299993 -6.832280159
lowerneck  -17.5163002 4.880489826 7.534850121
upperneck  16.05249977 3.818889856 3.177670002
head  7.973139763 2.516540051 0.2875420153
lclavicle  0 -4.497500157e-015 -2.743230041e-014
lhumerus  -41.76369858 23.48810005 70.49539948
lradius  -0.115047209 -6.507048965e-006 25.65029907
lwrist  4.824992743e-007 -3.790274832e-007 -31.38219833
lhand  -4.445230289e-031 -37.4048996 -10.54539967
lfingers  90 7.125020027 -90
lthumb  95.02386042 -25.365418 101.5964714
rclavicle  0 -4.497500157e-015 -2.743230041e-014
rhumerus  69.41870117 11.60050106 -60.3859024
rradius  -5.16745672e-007 2.214343908e-008 37.69820023
rwrist  -3.062178075e-005 0.01248142589 -151.7960052
rhand  -1.771117769e-031 4.539199829 -7.899020195
rfingers  -90 -7.125020027 -90
rthumb  -85.22658851 -8.224488045 -59.72621382
rfemur  -14.06452084 11.78318882 13.97166348
rtibia  -2.703570604 1.460715771 23.53336525
rfoot  -2.290344477 -15.9723978 -43.44314957
rtoes  3.848701829 19.64109169 -101.3178503
lfemur  -11.38602352 -21.88007927 -19.33480644
ltibia  3.654388428 1.805523753 14.4074564
lfoot  1.035785079 -28.5763588 31.20755196
ltoes  -8.680535279 -18.08789938 -116.1852703
